<svg width="339" height="365"><style>.s0{fill:#fff;}.s1{fill:#a8cfe6;}.s2{fill:#67b0d2;}.s3{fill:#6cbee2;}.s4{fill:#a3e0fa;}.s5{fill:#bae8fa;}.s6{fill:#88cbeb;}.s7{fill:#55afd6;}.s8{fill:#74cff2;}.s9{fill:#9ec0d3;}.s10{fill:#5098bc;}.s11{fill:#83aec9;}.s12{fill:#5f91b3;}.s13{fill:#769eb8;}.s14{fill:#3a779f;}</style><path d="M0 0L0 365 339 365 339 0 0 0z" fill="#fff"/><path d="M29 31C37.8 34.7 49.6 32 59 32 50.9 28.6 37.8 31 29 31z" fill="#a8cfe6"/><path d="M43 32L53 33 43 32z" fill="#67b0d2"/><path d="M53 32C57.2 34.4 62.3 33 67 33L53 32z" fill="#6cbee2"/><path d="M67 32L74 33 67 32z" fill="#a3e0fa"/><path d="M45 33L51 34 45 33z" fill="#bae8fa"/><path d="M51 33L56 34 51 33z" fill="#88cbeb"/><path d="M58 33C67.9 37.2 81.4 36.6 92 38.8 110.8 42.6 135 52.2 150 64.5 167.9 79.3 181.2 104.4 169.1 126.8 164.7 135.1 157.1 141.9 150 147.8 143.7 153.2 137.4 159.1 129 161.3 123.7 162.6 118.1 159.2 113 157.9 102.3 155.1 91.1 152 80 152 90.8 158.5 107.8 161 120 165 108 173.2 90.8 175.3 77 179 81.9 181 88 178.9 93 178.1 110.1 175.2 125 165.8 140.8 175.9 148.5 180.7 156.3 186.8 162.3 193.6 181.4 214.7 174.3 245 155 262.9 130.4 285.8 95.6 291.1 64 297 70.7 299.8 81 297.2 88 296.3 104.5 294.3 120.8 292.7 137 288.6L173 279.2C226.3 262.6 296.8 220.9 289.8 156 286.5 124.9 261.1 100.8 237.1 84.3 186.2 49.1 119.7 33 58 33z" fill="#2aaae2"/><path d="M70 33L78 34 70 33z" fill="#67b0d2"/><path d="M78 33L84 34 78 33z" fill="#88cbeb"/><path d="M53 34L62 35 53 34z" fill="#bae8fa"/><path d="M62 34L66 35 62 34z" fill="#6cbee2"/><path d="M81 34L89 35 81 34z" fill="#55afd6"/><path d="M89 34L92 35 89 34z" fill="#88cbeb"/><path d="M92 34L96 35 92 34M64 35L70 36 64 35z" fill="#bae8fa"/><path d="M70 35L74 36 70 35z" fill="#6cbee2"/><path d="M90 35L98 36 90 35z" fill="#55afd6"/><path d="M98 35L101 36 98 35z" fill="#a8cfe6"/><path d="M75 36L78 37 75 36z" fill="#bae8fa"/><path d="M102 36L106 37 102 36z" fill="#88cbeb"/><path d="M106 36L109 37 106 36M83.7 37.3L84.3 37.7 83.7 37.3z" fill="#a3e0fa"/><path d="M109 37L112 38 109 37z" fill="#6cbee2"/><path d="M112.7 37.3L113.3 37.7 112.7 37.3z" fill="#a3e0fa"/><path d="M84 38L89 39 84 38z" fill="#bae8fa"/><path d="M89.7 38.3L90.3 38.7 89.7 38.3M117 38L120 39 117 38M93 39L96 40 93 39z" fill="#88cbeb"/><path d="M123.7 39.3L124.3 39.7 123.7 39.3z" fill="#a3e0fa"/><path d="M97.7 40.3L98.3 40.7 97.7 40.3z" fill="#88cbeb"/><path d="M128.7 40.3L129.3 40.7 128.7 40.3z" fill="#a3e0fa"/><path d="M132.7 41.3L133.3 41.7 132.7 41.3z" fill="#88cbeb"/><path d="M104.7 42.3L105.3 42.7 104.7 42.3z" fill="#67b0d2"/><path d="M137.7 42.3L138.3 42.7 137.7 42.3M141.7 43.3L142.3 43.7 141.7 43.3z" fill="#a3e0fa"/><path d="M146.7 44.3L147.3 44.7 146.7 44.3z" fill="#bae8fa"/><path d="M115.7 46.3L116.3 46.7 115.7 46.3z" fill="#67b0d2"/><path d="M153.7 46.3L154.3 46.7 153.7 46.3M160.7 48.3L161.3 48.7 160.7 48.3M166.7 50.3L167.3 50.7 166.7 50.3z" fill="#a3e0fa"/><path d="M147 53L150 55 147 53z" fill="#74cff2"/><path d="M150 54L151 56 153 54 150 54M178.7 54.3L179.3 54.7 178.7 54.3z" fill="#a3e0fa"/><path d="M152 55C161.5 66.1 175.7 71.7 183.9 85 206 120.6 168.2 149.6 140 165 146.8 172.9 158.8 177.1 167 183.7 187.4 199.9 199.5 226.5 181.8 249.6 174 259.7 159.5 265.9 153 276 168.4 273.7 183.3 264.2 197 257.2 224.2 243.5 253.2 221.6 264 192 284.4 136.5 235.8 93.1 191 70.8 179.3 64.9 165 57 152 55z" fill="#fff"/><path d="M155.7 55.3L156.3 55.7 155.7 55.3z" fill="#6cbee2"/><path d="M181.7 55.3L182.3 55.7 181.7 55.3z" fill="#a3e0fa"/><path d="M136.7 56.3L137.3 56.7 136.7 56.3z" fill="#6cbee2"/><path d="M184.7 56.3L185.3 56.7 184.7 56.3z" fill="#bae8fa"/><path d="M160.7 57.3L161.3 57.7 160.7 57.3z" fill="#6cbee2"/><path d="M186.7 57.3L187.3 57.7 186.7 57.3z" fill="#a3e0fa"/><path d="M140 58L143 60 140 58z" fill="#55afd6"/><path d="M163.7 58.3L164.3 58.7 163.7 58.3z" fill="#6cbee2"/><path d="M189.7 58.3L190.3 58.7 189.7 58.3z" fill="#bae8fa"/><path d="M165.7 59.3L166.3 59.7 165.7 59.3z" fill="#74cff2"/><path d="M143 60L146 62 143 60z" fill="#6cbee2"/><path d="M159 60L162 62 159 60z" fill="#bae8fa"/><path d="M167 60L170 61 167 60z" fill="#88cbeb"/><path d="M194.7 60.3L195.3 60.7 194.7 60.3z" fill="#bae8fa"/><path d="M170.7 61.3L171.3 61.7 170.7 61.3z" fill="#88cbeb"/><path d="M196.7 61.3L197.3 61.7 196.7 61.3z" fill="#a3e0fa"/><path d="M146 62L149 64 146 62z" fill="#55afd6"/><path d="M172.7 62.3L173.3 62.7 172.7 62.3z" fill="#88cbeb"/><path d="M198.7 62.3L199.3 62.7 198.7 62.3M174.7 63.3L175.3 63.7 174.7 63.3z" fill="#a3e0fa"/><path d="M201.7 63.3L202.3 63.7 201.7 63.3z" fill="#bae8fa"/><path d="M149 64L154 68 149 64z" fill="#55afd6"/><path d="M177.7 64.3L178.3 64.7 177.7 64.3z" fill="#88cbeb"/><path d="M203.7 64.3L204.3 64.7 203.7 64.3z" fill="#bae8fa"/><path d="M179.7 65.3L180.3 65.7 179.7 65.3z" fill="#88cbeb"/><path d="M205.7 65.3L206.3 65.7 205.7 65.3z" fill="#a3e0fa"/><path d="M181.7 66.3L182.3 66.7 181.7 66.3z" fill="#88cbeb"/><path d="M207.7 66.3L208.3 66.7 207.7 66.3z" fill="#a3e0fa"/><path d="M184.7 67.3L185.3 67.7 184.7 67.3z" fill="#6cbee2"/><path d="M209.7 67.3L210.3 67.7 209.7 67.3z" fill="#a3e0fa"/><path d="M186.7 68.3L187.3 68.7 186.7 68.3z" fill="#6cbee2"/><path d="M211.7 68.3L212.3 68.7 211.7 68.3z" fill="#a3e0fa"/><path d="M188.7 69.3L189.3 69.7 188.7 69.3z" fill="#6cbee2"/><path d="M213.7 69.3L214.3 69.7 213.7 69.3z" fill="#a3e0fa"/><path d="M190.7 70.3L191.3 70.7 190.7 70.3z" fill="#6cbee2"/><path d="M215.7 70.3L216.3 70.7 215.7 70.3z" fill="#a3e0fa"/><path d="M192.7 71.3L193.3 71.7 192.7 71.3z" fill="#6cbee2"/><path d="M217.7 71.3L218.3 71.7 217.7 71.3z" fill="#bae8fa"/><path d="M194.7 72.3L195.3 72.7 194.7 72.3z" fill="#6cbee2"/><path d="M219.7 72.3L220.3 72.7 219.7 72.3z" fill="#bae8fa"/><path d="M196.7 73.3L197.3 73.7 196.7 73.3z" fill="#67b0d2"/><path d="M220.7 73.3L221.3 73.7 220.7 73.3z" fill="#88cbeb"/><path d="M198.7 74.3L199.3 74.7 198.7 74.3z" fill="#67b0d2"/><path d="M222.7 74.3L223.3 74.7 222.7 74.3z" fill="#88cbeb"/><path d="M226.7 76.3L227.3 76.7 226.7 76.3z" fill="#bae8fa"/><path d="M209 80L212 82 209 80M234 81C235.5 83.9 236.9 84.9 240 86L234 81z" fill="#55afd6"/><path d="M182.3 82.7L182.7 83.3 182.3 82.7z" fill="#67b0d2"/><path d="M213 83L214 84 213 83z" fill="#88cbeb"/><path d="M184.3 85.7L184.7 86.3 184.3 85.7M185.3 87.7L185.7 88.3 185.3 87.7z" fill="#6cbee2"/><path d="M186.3 89.7L186.7 90.3 186.3 89.7M223 90L224 91 223 90M187.3 91.7L187.7 92.3 187.3 91.7M188.3 94.7L188.7 95.3 188.3 94.7z" fill="#88cbeb"/><path d="M229 94L236 100 229 94z" fill="#55afd6"/><path d="M172.3 96.7L172.7 97.3 172.3 96.7z" fill="#a3e0fa"/><path d="M189.3 96.7L189.7 97.3 189.3 96.7z" fill="#bae8fa"/><path d="M255 97C257.7 102.7 262.9 107.4 268 111 265.3 105.3 260.1 100.6 255 97z" fill="#55afd6"/><path d="M189 98L189 102 189 98z" fill="#74cff2"/><path d="M173 100L173 112C174.5 108.4 174.5 103.6 173 100M190 100L190 113C191.6 109.2 191.6 103.8 190 100z" fill="#bae8fa"/><path d="M189 102L189 112C190.3 108.8 190.3 105.2 189 102z" fill="#55afd6"/><path d="M173.3 112.7L173.7 113.3 173.3 112.7z" fill="#6cbee2"/><path d="M189 112L189 115 189 112z" fill="#88cbeb"/><path d="M269 112L273 117 269 112z" fill="#55afd6"/><path d="M189.3 115.7L189.7 116.3 189.3 115.7z" fill="#bae8fa"/><path d="M172.3 116.7L172.7 117.3 172.3 116.7z" fill="#88cbeb"/><path d="M273 117L275 120 273 117z" fill="#55afd6"/><path d="M188.3 118.7L188.7 119.3 188.3 118.7z" fill="#bae8fa"/><path d="M171.3 120.7L171.7 121.3 171.3 120.7z" fill="#67b0d2"/><path d="M187.3 120.7L187.7 121.3 187.3 120.7z" fill="#88cbeb"/><path d="M275 120L277 123 275 120z" fill="#55afd6"/><path d="M186.3 123.7L186.7 124.3 186.3 123.7z" fill="#a3e0fa"/><path d="M256.3 124.7L256.7 125.3 256.3 124.7z" fill="#bae8fa"/><path d="M278.3 124.7L278.7 125.3 278.3 124.7z" fill="#67b0d2"/><path d="M169 125L168 129C169.3 127.3 169.6 127 169 125z" fill="#55afd6"/><path d="M184.3 127.7L184.7 128.3 184.3 127.7z" fill="#a3e0fa"/><path d="M259.3 129.7L259.7 130.3 259.3 129.7z" fill="#bae8fa"/><path d="M281.3 129.7L281.7 130.3 281.3 129.7M282.3 131.7L282.7 132.3 282.3 131.7z" fill="#6cbee2"/><path d="M261 133L262 137 261 133z" fill="#bae8fa"/><path d="M283.3 133.7L283.7 134.3 283.3 133.7z" fill="#74cff2"/><path d="M263.3 137.7L263.7 138.3 263.3 137.7z" fill="#bae8fa"/><path d="M285.3 137.7L285.7 138.3 285.3 137.7z" fill="#a3e0fa"/><path d="M286.3 140.7L286.7 141.3 286.3 140.7z" fill="#a8cfe6"/><path d="M265 142L266 150C267 147.1 266.4 144.7 265 142M287.3 142.7L287.7 143.3 287.3 142.7z" fill="#bae8fa"/><path d="M266.3 144.7L266.7 145.3 266.3 144.7z" fill="#6cbee2"/><path d="M287.3 144.7L287.7 145.3 287.3 144.7z" fill="#74cff2"/><path d="M40 149C46.9 151.1 57.6 149 65 149 58.7 146.4 46.5 147.1 40 149z" fill="#bae8fa"/><path d="M166 148L167 149 166 148M267.3 148.7L267.7 149.3 267.3 148.7z" fill="#88cbeb"/><path d="M288.3 148.7L288.7 149.3 288.3 148.7z" fill="#6cbee2"/><path d="M289 148L289 152 289 148z" fill="#bae8fa"/><path d="M43 149L48 150 43 149z" fill="#a8cfe6"/><path d="M48 149C52.7 151 58.9 151 64 151 59.5 147.9 53.3 149 48 149z" fill="#9ec0d3"/><path d="M62 149L66 150 62 149z" fill="#a8cfe6"/><path d="M64 150C68.8 152.9 76.6 153 82 152 76.5 149.6 69.9 150 64 150z" fill="#55afd6"/><path d="M75 150L80 151 75 150M64 151L67 152 64 151M82 151L88 152 82 151z" fill="#bae8fa"/><path d="M72 152L77 153 72 152z" fill="#88cbeb"/><path d="M88 152L92 153 88 152z" fill="#a3e0fa"/><path d="M143 154L146 152 143 154z" fill="#55afd6"/><path d="M268.3 152.7L268.7 153.3 268.3 152.7z" fill="#6cbee2"/><path d="M289.3 152.7L289.7 153.3 289.3 152.7z" fill="#88cbeb"/><path d="M77 153L80 154 77 153z" fill="#a3e0fa"/><path d="M80 153L83 154 80 153z" fill="#6cbee2"/><path d="M93 153L96 154 93 153z" fill="#88cbeb"/><path d="M81 154L85 155 81 154z" fill="#a8cfe6"/><path d="M85 154L88 155 85 154M98.7 154.3L99.3 154.7 98.7 154.3z" fill="#6cbee2"/><path d="M100 154L104 155 100 154z" fill="#bae8fa"/><path d="M141.7 154.3L142.3 154.7 141.7 154.3z" fill="#6cbee2"/><path d="M268 154L268 171C269.9 166.5 269.9 158.5 268 154M86.7 155.3L87.3 155.7 86.7 155.3z" fill="#bae8fa"/><path d="M88.7 155.3L89.3 155.7 88.7 155.3M103 155L106 156 103 155z" fill="#88cbeb"/><path d="M138 157L141 155 138 157M93 156L96 157 93 156z" fill="#6cbee2"/><path d="M107 156L110 157 107 156z" fill="#74cff2"/><path d="M153 158L156 156 153 158z" fill="#bae8fa"/><path d="M95 157L98 158 95 157z" fill="#a3e0fa"/><path d="M111 157L114 158 111 157z" fill="#88cbeb"/><path d="M136.7 157.3L137.3 157.7 136.7 157.3z" fill="#6cbee2"/><path d="M269 157L269 171C270.7 167 270.7 161 269 157z" fill="#88cbeb"/><path d="M98.7 158.3L99.3 158.7 98.7 158.3z" fill="#a3e0fa"/><path d="M100.7 158.3L101.3 158.7 100.7 158.3z" fill="#6cbee2"/><path d="M115.7 158.3L116.3 158.7 115.7 158.3z" fill="#88cbeb"/><path d="M133 160L136 158 133 160z" fill="#55afd6"/><path d="M150.7 158.3L151.3 158.7 150.7 158.3z" fill="#88cbeb"/><path d="M103.7 159.3L104.3 159.7 103.7 159.3z" fill="#74cff2"/><path d="M118 159L121 160 118 159z" fill="#88cbeb"/><path d="M149.7 159.3L150.3 159.7 149.7 159.3M105 160L110 162 105 160z" fill="#bae8fa"/><path d="M121 160L126 162 121 160z" fill="#67b0d2"/><path d="M147.7 160.3L148.3 160.7 147.7 160.3z" fill="#bae8fa"/><path d="M290 160L290 170C291.3 166.8 291.3 163.2 290 160z" fill="#88cbeb"/><path d="M126 161L130 162 126 161M144 163L147 161 144 163z" fill="#bae8fa"/><path d="M111.7 162.3L112.3 162.7 111.7 162.3z" fill="#a3e0fa"/><path d="M142.7 162.3L143.3 162.7 142.7 162.3z" fill="#88cbeb"/><path d="M113 163L116 164 113 163z" fill="#a3e0fa"/><path d="M141.7 163.3L142.3 163.7 141.7 163.3z" fill="#bae8fa"/><path d="M116 164L117 167 120 166 116 164z" fill="#a3e0fa"/><path d="M138 165L141 167 141 164 138 165z" fill="#bae8fa"/><path d="M115.7 167.3L116.3 167.7 115.7 167.3z" fill="#88cbeb"/><path d="M140.7 167.3L141.3 167.7 140.7 167.3z" fill="#a3e0fa"/><path d="M112.7 168.3L113.3 168.7 112.7 168.3z" fill="#88cbeb"/><path d="M142.7 168.3L143.3 168.7 142.7 168.3z" fill="#a3e0fa"/><path d="M109.7 169.3L110.3 169.7 109.7 169.3z" fill="#a8cfe6"/><path d="M126 169L129 170 126 169M144.7 169.3L145.3 169.7 144.7 169.3M123.7 170.3L124.3 170.7 123.7 170.3M146.7 170.3L147.3 170.7 146.7 170.3z" fill="#a3e0fa"/><path d="M290 170L290 174 290 170z" fill="#bae8fa"/><path d="M104.7 171.3L105.3 171.7 104.7 171.3z" fill="#6cbee2"/><path d="M120.7 171.3L121.3 171.7 120.7 171.3z" fill="#a3e0fa"/><path d="M132.7 171.3L133.3 171.7 132.7 171.3z" fill="#6cbee2"/><path d="M268 171L268 178C269.1 175.5 269.1 173.5 268 171z" fill="#a3e0fa"/><path d="M100.7 172.3L101.3 172.7 100.7 172.3M116.7 172.3L117.3 172.7 116.7 172.3z" fill="#88cbeb"/><path d="M134.7 172.3L135.3 172.7 134.7 172.3z" fill="#67b0d2"/><path d="M97.7 173.3L98.3 173.7 97.7 173.3z" fill="#88cbeb"/><path d="M113.7 173.3L114.3 173.7 113.7 173.3z" fill="#a3e0fa"/><path d="M93.7 174.3L94.3 174.7 93.7 174.3z" fill="#88cbeb"/><path d="M88.7 175.3L89.3 175.7 88.7 175.3z" fill="#bae8fa"/><path d="M105.7 175.3L106.3 175.7 105.7 175.3z" fill="#88cbeb"/><path d="M140 175L143 177 140 175z" fill="#55afd6"/><path d="M84.7 176.3L85.3 176.7 84.7 176.3M101.7 176.3L102.3 176.7 101.7 176.3z" fill="#a3e0fa"/><path d="M267 176L267 180 267 176z" fill="#bae8fa"/><path d="M80.7 177.3L81.3 177.7 80.7 177.3M96.7 177.3L97.3 177.7 96.7 177.3z" fill="#88cbeb"/><path d="M289.3 177.7L289.7 178.3 289.3 177.7z" fill="#a3e0fa"/><path d="M73 178L76 179 73 178z" fill="#bae8fa"/><path d="M56 181C62.6 183.8 71 181 78 181 78 178.9 77.9 179.3 80 179 73.5 176.7 63.1 180.9 56 181z" fill="#5098bc"/><path d="M90.7 178.3L91.3 178.7 90.7 178.3z" fill="#88cbeb"/><path d="M68.7 179.3L69.3 179.7 68.7 179.3z" fill="#a8cfe6"/><path d="M70.7 179.3L71.3 179.7 70.7 179.3z" fill="#83aec9"/><path d="M84.7 179.3L85.3 179.7 84.7 179.3z" fill="#74cff2"/><path d="M61 180L64 181 61 180z" fill="#88cbeb"/><path d="M78 180L81 181 78 180M267.3 180.7L267.7 181.3 267.3 180.7z" fill="#a8cfe6"/><path d="M43 182C47.7 184 53.9 183 59 183 53.9 180 48.5 181.6 43 182M69 181L73 182 69 181z" fill="#bae8fa"/><path d="M164 181C167 186.9 173.7 192.2 179 196 176 189.6 169.9 184.7 164 181z" fill="#55afd6"/><path d="M266 181L266 185 266 181z" fill="#bae8fa"/><path d="M288.3 181.7L288.7 182.3 288.3 181.7z" fill="#88cbeb"/><path d="M152 184L162 194C159.9 189.4 156.6 186.1 152 184z" fill="#55afd6"/><path d="M265 185L265 188 265 185z" fill="#bae8fa"/><path d="M287.3 185.7L287.7 186.3 287.3 185.7z" fill="#88cbeb"/><path d="M286.3 189.7L286.7 190.3 286.3 189.7M285.3 192.7L285.7 193.3 285.3 192.7z" fill="#bae8fa"/><path d="M263.3 193.7L263.7 194.3 263.3 193.7z" fill="#67b0d2"/><path d="M162 194L167 200C165.8 197 164.8 195.5 162 194z" fill="#55afd6"/><path d="M284.3 194.7L284.7 195.3 284.3 194.7z" fill="#a3e0fa"/><path d="M262.3 195.7L262.7 196.3 262.3 195.7z" fill="#6cbee2"/><path d="M283.3 196.7L283.7 197.3 283.3 196.7z" fill="#a3e0fa"/><path d="M261.3 197.7L261.7 198.3 261.3 197.7z" fill="#6cbee2"/><path d="M260.3 198.7L260.7 199.3 260.3 198.7z" fill="#a3e0fa"/><path d="M282.3 198.7L282.7 199.3 282.3 198.7z" fill="#a8cfe6"/><path d="M182 200L184 203 182 200z" fill="#55afd6"/><path d="M281.3 200.7L281.7 201.3 281.3 200.7z" fill="#88cbeb"/><path d="M279 202L279 205 281 202 279 202z" fill="#55afd6"/><path d="M281 202L280 205 281 202z" fill="#bae8fa"/><path d="M185.3 204.7L185.7 205.3 185.3 204.7z" fill="#88cbeb"/><path d="M279 205L278 208 279 205z" fill="#bae8fa"/><path d="M186.3 206.7L186.7 207.3 186.3 206.7z" fill="#88cbeb"/><path d="M187.3 208.7L187.7 209.3 187.3 208.7z" fill="#a3e0fa"/><path d="M277 208L274 214C276.2 212.1 277.4 210.9 277 208M171.3 210.7L171.7 211.3 171.3 210.7z" fill="#bae8fa"/><path d="M188 211L188 214 188 211z" fill="#a8cfe6"/><path d="M172.3 213.7L172.7 214.3 172.3 213.7z" fill="#a3e0fa"/><path d="M189 214L189 218 189 214z" fill="#88cbeb"/><path d="M173.3 216.7L173.7 217.3 173.3 216.7z" fill="#67b0d2"/><path d="M173 218L173 228C174.3 224.8 174.3 221.2 173 218z" fill="#bae8fa"/><path d="M189 218L189 229C190.4 225.6 190.4 221.4 189 218z" fill="#55afd6"/><path d="M190 218L190 228C191.3 224.8 191.3 221.2 190 218z" fill="#bae8fa"/><path d="M268 220L269 221 268 220M173.3 228.7L173.7 229.3 173.3 228.7M189 229L189 232 189 229z" fill="#88cbeb"/><path d="M189.3 232.7L189.7 233.3 189.3 232.7z" fill="#bae8fa"/><path d="M233 232L234 233 233 232z" fill="#a3e0fa"/><path d="M188 233L188 236 188 233M172.3 234.7L172.7 235.3 172.3 234.7M187.3 236.7L187.7 237.3 187.3 236.7z" fill="#6cbee2"/><path d="M252 236L253 237 252 236z" fill="#88cbeb"/><path d="M171.3 237.7L171.7 238.3 171.3 237.7z" fill="#6cbee2"/><path d="M187.3 238.7L187.7 239.3 187.3 238.7z" fill="#a3e0fa"/><path d="M186.3 240.7L186.7 241.3 186.3 240.7z" fill="#a8cfe6"/><path d="M185 241L183 246C184.8 244.2 185.6 243.5 185 241M167 246C160.4 257.5 150.1 266 139 273 147.4 274.7 168.9 254.4 167 246z" fill="#55afd6"/><path d="M183.3 246.7L183.7 247.3 183.3 246.7z" fill="#a3e0fa"/><path d="M235 249C237.9 249.4 239.1 248.2 241 246L235 249M182.3 248.7L182.7 249.3 182.3 248.7z" fill="#bae8fa"/><path d="M210.7 249.3L211.3 249.7 210.7 249.3z" fill="#6cbee2"/><path d="M207 252L210 250 207 252z" fill="#67b0d2"/><path d="M232 252L235 250 232 252z" fill="#bae8fa"/><path d="M204 254L207 252 204 254z" fill="#55afd6"/><path d="M230.7 252.3L231.3 252.7 230.7 252.3M225 255C227.5 255.6 228.2 254.8 230 253L225 255z" fill="#bae8fa"/><path d="M200.7 255.3L201.3 255.7 200.7 255.3M198.7 256.3L199.3 256.7 198.7 256.3z" fill="#6cbee2"/><path d="M222 258L225 256 222 258z" fill="#bae8fa"/><path d="M196.7 257.3L197.3 257.7 196.7 257.3M194.7 258.3L195.3 258.7 194.7 258.3z" fill="#88cbeb"/><path d="M218 259L222 259 218 259z" fill="#bae8fa"/><path d="M192.7 259.3L193.3 259.7 192.7 259.3M190.7 260.3L191.3 260.7 190.7 260.3z" fill="#88cbeb"/><path d="M216.7 260.3L217.3 260.7 216.7 260.3M214.7 261.3L215.3 261.7 214.7 261.3z" fill="#bae8fa"/><path d="M186.7 262.3L187.3 262.7 186.7 262.3z" fill="#88cbeb"/><path d="M212.7 262.3L213.3 262.7 212.7 262.3M210.7 263.3L211.3 263.7 210.7 263.3z" fill="#bae8fa"/><path d="M151 264L152 265 151 264z" fill="#a3e0fa"/><path d="M182.7 264.3L183.3 264.7 182.7 264.3z" fill="#74cff2"/><path d="M208.7 264.3L209.3 264.7 208.7 264.3M206.7 265.3L207.3 265.7 206.7 265.3z" fill="#bae8fa"/><path d="M202.7 266.3L203.3 266.7 202.7 266.3z" fill="#55afd6"/><path d="M171.7 269.3L172.3 269.7 171.7 269.3z" fill="#6cbee2"/><path d="M197.7 269.3L198.3 269.7 197.7 269.3z" fill="#bae8fa"/><path d="M188 272L193 272 188 272z" fill="#55afd6"/><path d="M149 277L154 276 149 277z" fill="#bae8fa"/><path d="M178.7 276.3L179.3 276.7 178.7 276.3z" fill="#67b0d2"/><path d="M148 277L146 278C147.5 278.8 148.8 278.9 148 277z" fill="#74cff2"/><path d="M177.7 277.3L178.3 277.7 177.7 277.3z" fill="#bae8fa"/><path d="M128 279L132 279 128 279z" fill="#55afd6"/><path d="M166.7 280.3L167.3 280.7 166.7 280.3z" fill="#67b0d2"/><path d="M168.7 280.3L169.3 280.7 168.7 280.3z" fill="#bae8fa"/><path d="M123.7 281.3L124.3 281.7 123.7 281.3z" fill="#6cbee2"/><path d="M165.7 281.3L166.3 281.7 165.7 281.3M119 282L122 283 119 282z" fill="#bae8fa"/><path d="M118.7 283.3L119.3 283.7 118.7 283.3z" fill="#88cbeb"/><path d="M156 283L159 284 156 283z" fill="#6cbee2"/><path d="M114 284L117 285 114 284z" fill="#bae8fa"/><path d="M150 285L155 285 150 285z" fill="#88cbeb"/><path d="M155.7 284.3L156.3 284.7 155.7 284.3M106 287L111 287 106 287z" fill="#bae8fa"/><path d="M111.7 286.3L112.3 286.7 111.7 286.3z" fill="#6cbee2"/><path d="M147.7 286.3L148.3 286.7 147.7 286.3z" fill="#a3e0fa"/><path d="M142 287L145 288 142 287z" fill="#88cbeb"/><path d="M103 288L106 289 103 288z" fill="#bae8fa"/><path d="M136 288L139 289 136 288z" fill="#67b0d2"/><path d="M139.7 288.3L140.3 288.7 139.7 288.3z" fill="#a3e0fa"/><path d="M100 289L103 290 100 289z" fill="#bae8fa"/><path d="M134 289L137 290 134 289z" fill="#88cbeb"/><path d="M96 290L99 291 96 290z" fill="#bae8fa"/><path d="M129 290L132 291 129 290z" fill="#88cbeb"/><path d="M92 291L95 292 92 291z" fill="#bae8fa"/><path d="M95.7 291.3L96.3 291.7 95.7 291.3M124.7 291.3L125.3 291.7 124.7 291.3z" fill="#88cbeb"/><path d="M126.7 291.3L127.3 291.7 126.7 291.3M88 292L91 293 88 292z" fill="#bae8fa"/><path d="M91 292L94 293 91 292z" fill="#74cff2"/><path d="M117 292L120 293 117 292z" fill="#6cbee2"/><path d="M120.7 292.3L121.3 292.7 120.7 292.3z" fill="#a3e0fa"/><path d="M83 293L86 294 83 293z" fill="#bae8fa"/><path d="M86 293L89 294 86 293z" fill="#88cbeb"/><path d="M112 293L115 294 112 293z" fill="#74cff2"/><path d="M115 293L118 294 115 293M67 295L80 295 67 295z" fill="#a3e0fa"/><path d="M80 294L84 295 80 294z" fill="#6cbee2"/><path d="M106 294L109 295 106 294z" fill="#88cbeb"/><path d="M109 294L112 295 109 294z" fill="#bae8fa"/><path d="M74 295L77 296 74 295M95 295L100 296 95 295z" fill="#6cbee2"/><path d="M100 295L106 296 100 295M58 296L67 297 58 296z" fill="#a3e0fa"/><path d="M86 296L90 297 86 296z" fill="#6cbee2"/><path d="M83 297C87.2 298.7 91.6 297.3 96 297L83 297z" fill="#a3e0fa"/><path d="M48 297L53 298 48 297z" fill="#bae8fa"/><path d="M53 297L61 298 53 297z" fill="#88cbeb"/><path d="M48 298C53.5 300.3 61.1 299 67 299 61.9 296 53.9 298 48 298z" fill="#55afd6"/><path d="M75 297L83 298 75 297z" fill="#6cbee2"/><path d="M37 299L43 299 37 299z" fill="#a8cfe6"/><path d="M42 299L56 300C51.8 298.2 46.3 297.8 42 299M67 298L72 299 67 298z" fill="#88cbeb"/><path d="M72 298L78 299 72 298M56 299L64 300 56 299z" fill="#a3e0fa"/><path d="M64 299L70 300 64 299z" fill="#bae8fa"/><path d="M25 328L30 329 25 328z" fill="#a8cfe6"/><path d="M34 328L39 329 34 328M54 328L58 330 54 328z" fill="#9ec0d3"/><path d="M60.7 328.3L61.3 328.7 60.7 328.3z" fill="#bae8fa"/><path d="M69 328L75 329 69 328M78 328L84 329 78 328M96 328L99 329 96 328M105 328L110 329 105 328z" fill="#88cbeb"/><path d="M116 328L119 329 116 328z" fill="#9ec0d3"/><path d="M122 328L128 329 122 328M131 328L137 329 131 328M167 328L171 329 167 328z" fill="#88cbeb"/><path d="M177.7 328.3L178.3 328.7 177.7 328.3M192.7 328.3L193.3 328.7 192.7 328.3z" fill="#bae8fa"/><path d="M201 328L207 329 201 328z" fill="#9ec0d3"/><path d="M210 328L216 329 210 328z" fill="#88cbeb"/><path d="M221.7 328.3L222.3 328.7 221.7 328.3M228 328L231 333 234 329 228 328z" fill="#bae8fa"/><path d="M237 328L241 329 237 328z" fill="#a8cfe6"/><path d="M263 328L269 329 263 328M272 328L275 329 272 328z" fill="#88cbeb"/><path d="M25 329L25 338 31 338 27 337C26.8 333.9 26.9 331.5 25 329z" fill="#83aec9"/><path d="M26 329L30 330 26 333 30 337 31 329 26 329M34 329L34 338 35 333 40 338 38 333 40 329 34 329z" fill="#5f91b3"/><path d="M45.7 329.3L46.3 329.7 45.7 329.3z" fill="#769eb8"/><path d="M53 329L52 335 57 330 53 329z" fill="#5f91b3"/><path d="M60 329C60 332.3 59.4 335.7 62 338L60 329z" fill="#9ec0d3"/><path d="M61 329L61 337 67 338C65.3 335.1 64.5 333.4 65 330L61 329z" fill="#769eb8"/><path d="M65 329L65 331 67 329 65 329z" fill="#9ec0d3"/><path d="M69 329L69 338 75 338 71 337 73 334 69 329z" fill="#769eb8"/><path d="M70 329L75 330 70 329z" fill="#5f91b3"/><path d="M78 331L84 331C82.1 328.8 79.9 328.8 78 331M96 329L99 330 96 329z" fill="#3a779f"/><path d="M98 330C99.5 332.8 99.5 334.2 98 337 102.4 336.1 101.6 332.4 100 329L98 330z" fill="#83aec9"/><path d="M105 329L110 330 105 329z" fill="#3a779f"/><path d="M110 329L111 330 110 329z" fill="#a8cfe6"/><path d="M119 338L115 337C115.3 333.4 115.8 331.7 119 330 112.5 327.9 111.3 337.4 119 338z" fill="#769eb8"/><path d="M122 329L126 330 122 329z" fill="#3a779f"/><path d="M126.7 329.3L127.3 329.7 126.7 329.3z" fill="#5f91b3"/><path d="M131 331L137 330C134.5 329 132.8 328.9 131 331z" fill="#3a779f"/><path d="M141.3 329.7L141.7 330.3 141.3 329.7z" fill="#9ec0d3"/><path d="M142 329L142 332 142 329z" fill="#3a779f"/><path d="M143 329C142.5 331.9 143 331.5 141 331L140 338 145 337 143 329z" fill="#5f91b3"/><path d="M148 329L148 338C149.3 335 149.3 332 148 329z" fill="#83aec9"/><path d="M149 329L149 338 154 338 150 337 149 329z" fill="#769eb8"/><path d="M166 329C166.9 331.8 169.2 334.8 167 337L172 338 168 330 172 331C170.3 329 168.6 329.1 166 329z" fill="#5f91b3"/><path d="M176 329L177 330 176 329z" fill="#9ec0d3"/><path d="M179 338L177 330 179 332 179 329C174.6 331.5 174.7 335.5 179 338z" fill="#5f91b3"/><path d="M183 329L183 338C184.3 335 184.3 332 183 329z" fill="#a8cfe6"/><path d="M184 329L184 338 189 338 185 337 184 329z" fill="#5f91b3"/><path d="M185 329L185 337 189 337 184 338 190 339 190 336 186 336 185 329z" fill="#bae8fa"/><path d="M192 329L193 338 194 329 192 329z" fill="#83aec9"/><path d="M196 329L194 336C198.1 337.5 197.1 331.3 196 329z" fill="#bae8fa"/><path d="M197 329C197 332.5 197.1 335 194 337L198 338 197 329z" fill="#5f91b3"/><path d="M198 329L198 338C199.3 335 199.3 332 198 329z" fill="#a8cfe6"/><path d="M201 329L207 331C205.3 329 203.6 329.1 201 329M210 329L214 330 210 329z" fill="#3a779f"/><path d="M214.7 329.3L215.3 329.7 214.7 329.3z" fill="#769eb8"/><path d="M220 329L219 335 223 330 220 329z" fill="#5f91b3"/><path d="M227 329C227 332.3 226.4 335.7 229 338L227 329z" fill="#a8cfe6"/><path d="M228.3 329.7L228.7 330.3 228.3 329.7z" fill="#3a779f"/><path d="M229 329L228 337C229.3 334.3 229.9 331.8 229 329z" fill="#5f91b3"/><path d="M232 329L232 333 230 331 231 337C232.8 334.3 233.2 332 232 329z" fill="#67b0d2"/><path d="M233 329L233 338C234.3 335 234.3 332 233 329z" fill="#83aec9"/><path d="M236.3 329.7L236.7 330.3 236.3 329.7z" fill="#9ec0d3"/><path d="M237 329L242 331C240.5 329.2 239.4 329.2 237 329z" fill="#5f91b3"/><path d="M254 329L254 337C255.2 334.2 255.2 331.8 254 329z" fill="#3a779f"/><path d="M255 329L255 337 260 337 256 336 255 329z" fill="#a3e0fa"/><path d="M263 331L268 330C265.7 329.1 264.6 329.1 263 331z" fill="#3a779f"/><path d="M268 329L265 330 265 338 267 338 268 329z" fill="#83aec9"/><path d="M272 329L275 330 272 329z" fill="#3a779f"/><path d="M272 338C277.1 337.1 277.3 333.5 276 329 272.9 331.3 272.7 334.3 272 338z" fill="#769eb8"/><path d="M27 330L27 332 29 332 29 330 27 330z" fill="#fff"/><path d="M29.3 330.7L29.7 331.3 29.3 330.7M31 330L31 337C32.1 334.5 32.1 332.5 31 330z" fill="#bae8fa"/><path d="M35.3 330.7L35.7 331.3 35.3 330.7z" fill="#6cbee2"/><path d="M36.7 330.3L37.3 330.7 36.7 330.3z" fill="#fff"/><path d="M38.3 330.7L38.7 331.3 38.3 330.7z" fill="#83aec9"/><path d="M45 330L45 332 47 332 47 330 45 330z" fill="#3a779f"/><path d="M52.3 330.7L52.7 331.3 52.3 330.7z" fill="#83aec9"/><path d="M80 330C80 333.1 79.6 335.9 82 338L80 330z" fill="#9ec0d3"/><path d="M81 330L81 337C82.1 334.5 82.1 332.5 81 330z" fill="#5f91b3"/><path d="M96 330L95 339 100 339 96 338C96.9 335.1 97.2 332.9 96 330z" fill="#bae8fa"/><path d="M97 330L96 338 99 338 97 330z" fill="#5f91b3"/><path d="M106 330L106 336C107 333.7 107 332.3 106 330z" fill="#bae8fa"/><path d="M107 330L105 337 110 338 107 330z" fill="#5f91b3"/><path d="M108 330L108 336C109 333.7 109 332.3 108 330z" fill="#a8cfe6"/><path d="M124 330L124 336C125 333.7 125 332.3 124 330z" fill="#9ec0d3"/><path d="M125 330C124.8 333.2 124.3 334.8 122 337L128 338 125 330z" fill="#5098bc"/><path d="M133 330L133 338 135 338 135 330 133 330M136 330L137 331 136 330M177.7 330.3L178.3 330.7 177.7 330.3z" fill="#83aec9"/><path d="M201 330L205 338 204 330 201 330z" fill="#9ec0d3"/><path d="M204 330L204 337C205.1 334.5 205.1 332.5 204 330z" fill="#5f91b3"/><path d="M205 330L205 336C206 333.7 206 332.3 205 330z" fill="#bae8fa"/><path d="M212 330L212 336C213 333.7 213 332.3 212 330z" fill="#83aec9"/><path d="M213 330C212.8 333.2 212.3 334.8 210 337L214 338 213 330z" fill="#5098bc"/><path d="M221 330L223 336 220 335C221.3 341.3 228.8 331.6 221 330M237 330L240 337 236 336C237.7 338 239.4 337.9 242 338 241.2 334.4 239.8 332.4 237 330z" fill="#769eb8"/><path d="M264 330L264 338C265.2 335.2 265.2 332.8 264 330z" fill="#bae8fa"/><path d="M272 330L272 336C273 333.7 273 332.3 272 330z" fill="#a8cfe6"/><path d="M36.7 331.3L37.3 331.7 36.7 331.3z" fill="#a3e0fa"/><path d="M44 331L47 333 45 335C47.5 336 47.7 334.3 48 332L44 331z" fill="#5098bc"/><path d="M98 331C98.2 333.4 98.2 334.5 100 336L100 331 98 331z" fill="#a8cfe6"/><path d="M115 331C115.2 333.4 115.2 334.5 117 336L115 331M140 331L140 334 140 331z" fill="#bae8fa"/><path d="M144.3 331.7L144.7 332.3 144.3 331.7M168 331L169 332 168 331z" fill="#a8cfe6"/><path d="M177 331C176.7 333.7 176.8 334.4 179 336L179 331 177 331M221 331C220.5 333.8 220.6 334.5 223 336L223 331 221 331M274 331L274 336C275.5 333.8 275.5 333.2 274 331z" fill="#bae8fa"/><path d="M27.7 332.3L28.3 332.7 27.7 332.3z" fill="#a3e0fa"/><path d="M51 332L51 335 51 332z" fill="#bae8fa"/><path d="M53 332L53 335 53 332z" fill="#a3e0fa"/><path d="M61 332L61 335 61 332z" fill="#3a779f"/><path d="M71.7 332.3L72.3 332.7 71.7 332.3M99 332L99 335 99 332z" fill="#bae8fa"/><path d="M179 332L179 337 181 332 179 332z" fill="#769eb8"/><path d="M277 332L277 335 277 332z" fill="#9ec0d3"/><path d="M35 333L35 336 37 335 35 333z" fill="#88cbeb"/><path d="M38.3 333.7L38.7 334.3 38.3 333.7z" fill="#bae8fa"/><path d="M44 333L43 338C44.3 336.1 44.7 335.2 44 333z" fill="#3a779f"/><path d="M45 333L45 335 47 335 47 333 45 333z" fill="#67b0d2"/><path d="M117.7 333.3L118.3 333.7 117.7 333.3z" fill="#a8cfe6"/><path d="M142.3 333.7L142.7 334.3 142.3 333.7z" fill="#88cbeb"/><path d="M27 337L30 334C27.6 334.5 27.5 334.6 27 337z" fill="#bae8fa"/><path d="M116 334L118 337C119.1 334.9 118.3 334.5 116 334z" fill="#3a779f"/><path d="M119 334L119 337 119 334z" fill="#bae8fa"/><path d="M139 334L139 338 139 334z" fill="#a8cfe6"/><path d="M282 334L282 336 284 336 284 334 282 334z" fill="#769eb8"/><path d="M284 334L282 336C284 336.8 284.8 336 284 334M48 335L47 338C48.8 337 49 336.8 48 335z" fill="#83aec9"/><path d="M52.3 335.7L52.7 336.3 52.3 335.7z" fill="#bae8fa"/><path d="M53 335C53.6 337.7 54.3 337.8 57 338L53 335z" fill="#769eb8"/><path d="M117 335L115 336C116.5 336.8 117.8 336.9 117 335z" fill="#a3e0fa"/><path d="M145 335L144 338C145.8 337 146 336.8 145 335z" fill="#a8cfe6"/><path d="M169 335L168 337 170 337 169 335z" fill="#a3e0fa"/><path d="M171 335L172 336 171 335z" fill="#9ec0d3"/><path d="M232 335L232 338 232 335z" fill="#3a779f"/><path d="M35.3 336.7L35.7 337.3 35.3 336.7z" fill="#a8cfe6"/><path d="M44 338L47 337C45.2 336 45 336.2 44 338z" fill="#bae8fa"/><path d="M55 336L57 337 54 338C56.4 339.4 57.4 338.6 58 336L55 336z" fill="#a8cfe6"/><path d="M71 336L75 337 71 336z" fill="#a3e0fa"/><path d="M105.7 336.3L106.3 336.7 105.7 336.3z" fill="#6cbee2"/><path d="M122.7 336.3L123.3 336.7 122.7 336.3z" fill="#a3e0fa"/><path d="M126.7 336.3L127.3 336.7 126.7 336.3M141 338L144 337C142.2 336 142 336.2 141 338z" fill="#bae8fa"/><path d="M150 336L154 337 150 336z" fill="#a3e0fa"/><path d="M166 336L166 338 168 336 166 336z" fill="#9ec0d3"/><path d="M210.7 336.3L211.3 336.7 210.7 336.3z" fill="#a3e0fa"/><path d="M214.7 336.3L215.3 336.7 214.7 336.3z" fill="#bae8fa"/><path d="M238.7 336.3L239.3 336.7 238.7 336.3z" fill="#a3e0fa"/><path d="M271.3 336.7L271.7 337.3 271.3 336.7z" fill="#bae8fa"/><path d="M214.7 337.3L215.3 337.7 214.7 337.3z" fill="#83aec9"/><path d="M254 337L260 338 254 337z" fill="#769eb8"/><path d="M25 338L30 339 25 338M69 338L75 339 69 338z" fill="#a8cfe6"/><path d="M80.7 338.3L81.3 338.7 80.7 338.3z" fill="#bae8fa"/><path d="M105 338L110 339 105 338M114 338L118 339 114 338M122 338L128 339 122 338M149 338L154 339 149 338M167 338L171 339 167 338z" fill="#a8cfe6"/><path d="M177.7 338.3L178.3 338.7 177.7 338.3z" fill="#bae8fa"/><path d="M194 338L197 339 194 338M210 338L216 339 210 338M237 338L242 339 237 338M254 338L260 339 254 338M272 338L275 339 272 338z" fill="#a8cfe6"/></svg>