<svg xmlns="http://www.w3.org/2000/svg" version="1.1" x="0" y="0" width="100" height="80" xml:space="preserve" viewBox="-5 0 450 223.7"><path stroke="#4089c8" stroke-width="4.3" fill="#DCDCDC" d="M185.6 16.4C185.6 16.4 177 12.1 167.6 8.5 167.2 8.4 166.9 8.3 166.5 8.1 165.4 7.7 164.2 7.3 163.1 6.9 153.1 3.6 142.6 1.5 131.8 0.6L131.8 0.6C131.5 0.6 131.2 0.5 130.9 0.5 129.3 0.4 127.6 0.2 125.9 0.1 124.1 0 122.3 0 120.5 0H119.5C99.6 0.1 81.1 4.1 64.2 12.2 45.3 21.3 29.9 34.6 18.6 51.8 7.2 68.9 1 87.9 0.1 108.3 0 110 0 111.8 0 113.5 0 142 10.4 167.1 31.1 188.2 52.6 210.3 80.7 222.2 114.4 223.6 116.6 223.7 118.7 223.7 120.8 223.7 139.9 223.7 157.5 220.3 173.4 213.6 177.3 211.9 181.2 209.9 185.1 207.7 187.2 206.4 189.2 205.1 191.2 203.7L192.7 202.7 195.2 201C198.2 198.9 201 196.6 203.7 194.1L204.7 193.2C206.3 191.7 207.9 190.1 209.4 188.5L215.1 182.1 217.2 179.4 218.2 177.9 219.3 176.5C227.7 162.3 255.1 110.8 255.1 110.8V110.7L256.8 107.6 258.1 105.1C262.2 97.7 265.1 92.5 268.9 87L269.1 86.8C278.1 73.8 293.6 64.4 311.9 62.9 342.5 60.2 369.4 80.4 371.9 107.9 374.3 135.4 351.5 159.8 320.8 162.4 314.4 163 308.2 162.6 302.3 161.3L302.2 161.3C279.7 156.6 265.4 140.2 258.3 132.9L228.8 187.2C228.8 187.2 238 196.4 244.2 201 250.5 205.6 258.7 210.2 265.2 213 280.9 219.7 298 223.7 316.9 223.7 319.2 223.7 318.7 223.7 321 223.6 354.7 222.2 384.7 209.3 406.3 187.2 426.8 166.2 438 142.3 438 113.9V113.1C438 111.5 438 109.9 437.9 108.3 437.9 106.6 437.7 104.9 437.6 103.2 437.6 103.2 437.6 103.2 437.6 103.2 437.6 103.2 437.6 103.2 437.6 103.2 436 84.7 429.9 67.4 419.5 51.8 414.9 44.8 409.6 38.5 403.7 32.8 395 24.5 385.1 17.6 373.8 12.2 356.8 4.1 338.1 0 318.1 0 316.1 0 314.1 0 312 0.1 298 0.8 284.4 3.4 271.6 8.1 258.7 12.8 247.5 18.9 238.4 26.3 236.5 27.8 234.5 29.6 232.3 31.6L230.7 33.1 228.6 35.4H228.6 228.6L227.6 36.4 227.1 36.9 224.5 39.6C222.7 41.8 220.8 43.9 219.2 46L219.1 46 219.1 45.9C215.6 50.2 212.3 54.6 209.9 58.6 208.3 61.1 206.7 63.7 205.2 66.4L184.3 108.7 184.3 108.7 183.2 110.9 180.9 115.6C176.3 124.8 171.4 134.1 165.9 141.7 153.7 155.2 139.8 161.7 122 161.7 120.8 161.7 119.5 161.7 118.2 161.6 107.5 161.2 98.3 158.6 90.1 153.8 89.2 153.3 88.4 152.7 87.6 152.2 80.9 147.8 75.8 142.1 72 135 67.6 126.9 65.7 118.7 66 110 66 109.8 66 109.6 66 109.4 66.6 95.5 71.9 84.7 82.6 75.4 85.1 73.2 87.8 71.3 90.7 69.6 91.1 69.4 91.5 69.1 91.9 68.9 99.8 64.6 108.8 62.5 119.1 62.5L122.3 62.6C138.7 63.2 151.4 68.3 161.5 78.3L193.1 21.5Z"/></svg>