<svg xmlns="http://www.w3.org/2000/svg" xmlns:xlink="http://www.w3.org/1999/xlink" id="coursera-animated-logo" version="1.1" x="0" y="0" width="100" height="80" xml:space="preserve" viewBox="-5 0 450 223.73">
  <path stroke="#4089c8" stroke-width="4.3" fill="#DCDCDC" d="M185.56 16.42C185.56 16.42 177.01 12.07 167.6 8.53 167.23 8.39 166.87 8.25 166.5 8.12 165.37 7.71 164.24 7.31 163.1 6.93 153.09 3.6 142.59 1.52 131.76 0.59L131.77 0.58C131.49 0.55 131.21 0.53 130.92 0.51 129.26 0.39 127.58 0.19 125.92 0.11 124.11 0.04 122.29 0 120.5 0H119.49C99.59 0.07 81.1 4.14 64.2 12.22 45.27 21.34 29.91 34.63 18.55 51.77 7.2 68.89 1 87.9 0.12 108.3 0.05 110.05 0 111.77 0 113.48 -0.02 142.02 10.39 167.11 31.05 188.18 52.64 210.26 80.71 222.18 114.43 223.58 116.59 223.67 118.72 223.73 120.85 223.73 139.92 223.73 157.55 220.32 173.38 213.56 177.33 211.87 181.17 209.88 185.09 207.67 187.23 206.45 189.24 205.14 191.24 203.74L192.72 202.75 195.21 201.03C198.21 198.9 201 196.57 203.74 194.09L204.68 193.19C206.29 191.67 207.88 190.13 209.4 188.53L215.07 182.11 217.23 179.4 218.25 177.95 219.26 176.49C227.68 162.33 255.12 110.8 255.12 110.8V110.7L256.75 107.55 258.12 105.09C262.17 97.73 265.08 92.5 268.95 87L269.06 86.84C278.08 73.75 293.58 64.44 311.86 62.87 342.54 60.23 369.4 80.38 371.87 107.87 374.33 135.38 351.46 159.81 320.78 162.45 314.41 163 308.2 162.56 302.34 161.28L302.2 161.33C279.69 156.64 265.37 140.24 258.3 132.91L228.8 187.17C228.8 187.17 237.96 196.41 244.25 201.02 250.53 205.63 258.66 210.17 265.16 212.97 280.92 219.7 298.03 223.73 316.95 223.73 319.16 223.73 318.7 223.73 320.99 223.64 354.68 222.24 384.68 209.33 406.32 187.21 426.82 166.23 437.95 142.25 438.05 113.89V113.08C438.04 111.5 438 109.92 437.94 108.33 437.86 106.61 437.75 104.92 437.6 103.23 437.6 103.23 437.6 103.21 437.6 103.2 437.6 103.2 437.6 103.18 437.6 103.17 435.97 84.69 429.86 67.41 419.51 51.8 414.88 44.83 409.6 38.51 403.69 32.83 395.04 24.52 385.05 17.64 373.78 12.2 356.82 4.1 338.08 0.01 318.08 0.01 316.12 0.01 314.09 0.04 312.02 0.12 297.96 0.76 284.39 3.42 271.62 8.12 258.74 12.78 247.54 18.93 238.37 26.3 236.5 27.77 234.47 29.59 232.29 31.6L230.72 33.15 228.57 35.42H228.58 228.6L227.59 36.41 227.1 36.95 224.55 39.64C222.65 41.77 220.84 43.9 219.15 46L219.14 45.97 219.08 45.91C215.57 50.18 212.32 54.59 209.94 58.57 208.32 61.12 206.74 63.74 205.22 66.36L184.28 108.69 184.31 108.72 183.21 110.86 180.9 115.55C176.32 124.83 171.41 134.09 165.92 141.73 153.65 155.16 139.81 161.72 122.01 161.72 120.76 161.72 119.48 161.66 118.19 161.6 107.47 161.16 98.26 158.63 90.11 153.79 89.23 153.26 88.38 152.74 87.56 152.19 80.9 147.76 75.8 142.08 71.98 134.96 67.64 126.92 65.72 118.73 66 110 66.02 109.78 66.02 109.58 66.02 109.37 66.61 95.5 71.9 84.72 82.55 75.39 85.13 73.18 87.85 71.29 90.68 69.6 91.08 69.36 91.47 69.13 91.87 68.93 99.79 64.61 108.8 62.47 119.13 62.47L122.34 62.56C138.74 63.19 151.38 68.32 161.47 78.31L193.12 21.49Z"/>
</svg>
